<mxfile host="app.diagrams.net" agent="Mozilla/5.0 (Macintosh; Intel Mac OS X 10.15; rv:128.0) Gecko/20100101 Firefox/128.0" version="24.7.5">
  <diagram name="Page-1" id="xePpAwtWUjEFdL4y1r4D">
    <mxGraphModel dx="529" dy="510" grid="1" gridSize="10" guides="1" tooltips="1" connect="1" arrows="1" fold="1" page="1" pageScale="1" pageWidth="850" pageHeight="1100" math="0" shadow="0">
      <root>
        <mxCell id="0" />
        <mxCell id="1" parent="0" />
        <mxCell id="pcEnY2RNjyqCKXGkyiXo-20" style="edgeStyle=none;rounded=0;orthogonalLoop=1;jettySize=auto;html=1;exitX=0.5;exitY=1;exitDx=0;exitDy=0;entryX=0.5;entryY=0;entryDx=0;entryDy=0;" edge="1" parent="1" source="pcEnY2RNjyqCKXGkyiXo-3" target="pcEnY2RNjyqCKXGkyiXo-6">
          <mxGeometry relative="1" as="geometry">
            <Array as="points">
              <mxPoint x="300" y="210" />
            </Array>
          </mxGeometry>
        </mxCell>
        <mxCell id="pcEnY2RNjyqCKXGkyiXo-3" value="&lt;div&gt;&lt;b&gt;NCBI&lt;/b&gt;&lt;/div&gt;&lt;div&gt;&lt;b&gt;TSA&lt;br&gt;&lt;/b&gt;&lt;/div&gt;" style="ellipse;whiteSpace=wrap;html=1;aspect=fixed;" vertex="1" parent="1">
          <mxGeometry x="210" y="120" width="80" height="80" as="geometry" />
        </mxCell>
        <mxCell id="pcEnY2RNjyqCKXGkyiXo-21" style="edgeStyle=none;rounded=0;orthogonalLoop=1;jettySize=auto;html=1;exitX=0.5;exitY=1;exitDx=0;exitDy=0;" edge="1" parent="1" source="pcEnY2RNjyqCKXGkyiXo-4">
          <mxGeometry relative="1" as="geometry">
            <mxPoint x="300" y="240" as="targetPoint" />
            <Array as="points">
              <mxPoint x="300" y="210" />
            </Array>
          </mxGeometry>
        </mxCell>
        <mxCell id="pcEnY2RNjyqCKXGkyiXo-4" value="&lt;div&gt;&lt;b&gt;GenBank&lt;/b&gt;&lt;/div&gt;&lt;div&gt;&lt;b&gt;gbvrl*&lt;br&gt;&lt;/b&gt;&lt;/div&gt;" style="ellipse;whiteSpace=wrap;html=1;aspect=fixed;" vertex="1" parent="1">
          <mxGeometry x="310" y="120" width="80" height="80" as="geometry" />
        </mxCell>
        <mxCell id="pcEnY2RNjyqCKXGkyiXo-24" style="edgeStyle=none;rounded=0;orthogonalLoop=1;jettySize=auto;html=1;entryX=0.5;entryY=0;entryDx=0;entryDy=0;" edge="1" parent="1" source="pcEnY2RNjyqCKXGkyiXo-5" target="pcEnY2RNjyqCKXGkyiXo-23">
          <mxGeometry relative="1" as="geometry" />
        </mxCell>
        <mxCell id="pcEnY2RNjyqCKXGkyiXo-5" value="palm_annot" style="rounded=1;whiteSpace=wrap;html=1;fillColor=#f5f5f5;strokeColor=#666666;fontColor=#333333;" vertex="1" parent="1">
          <mxGeometry x="240" y="300" width="120" height="60" as="geometry" />
        </mxCell>
        <mxCell id="pcEnY2RNjyqCKXGkyiXo-22" style="edgeStyle=none;rounded=0;orthogonalLoop=1;jettySize=auto;html=1;entryX=0.5;entryY=0;entryDx=0;entryDy=0;" edge="1" parent="1" source="pcEnY2RNjyqCKXGkyiXo-6" target="pcEnY2RNjyqCKXGkyiXo-5">
          <mxGeometry relative="1" as="geometry" />
        </mxCell>
        <mxCell id="pcEnY2RNjyqCKXGkyiXo-6" value="&lt;font size=&quot;1&quot;&gt;&lt;b&gt;&lt;font style=&quot;font-size: 17px;&quot;&gt;+&lt;/font&gt;&lt;/b&gt;&lt;/font&gt;" style="ellipse;whiteSpace=wrap;html=1;aspect=fixed;" vertex="1" parent="1">
          <mxGeometry x="290" y="240" width="20" height="20" as="geometry" />
        </mxCell>
        <mxCell id="pcEnY2RNjyqCKXGkyiXo-23" value="&lt;div&gt;all_intact_palmcores.faa&lt;/div&gt;" style="rounded=0;whiteSpace=wrap;html=1;" vertex="1" parent="1">
          <mxGeometry x="220" y="390" width="160" height="20" as="geometry" />
        </mxCell>
      </root>
    </mxGraphModel>
  </diagram>
</mxfile>
